<?xml version="1.0" encoding="UTF-8" standalone="no"?>
<!-- Created with Inkscape (http://www.inkscape.org/) -->

<svg
   width="350.93777mm"
   height="137.74496mm"
   viewBox="0 0 350.93777 137.74496"
   version="1.1"
   id="svg1"
   sodipodi:docname="lflogo_banner.svg"
   inkscape:version="1.4.3 (0d15f75, 2025-12-25)"
   inkscape:export-filename="lflogo3.svg"
   inkscape:export-xdpi="96"
   inkscape:export-ydpi="96"
   xmlns:inkscape="http://www.inkscape.org/namespaces/inkscape"
   xmlns:sodipodi="http://sodipodi.sourceforge.net/DTD/sodipodi-0.dtd"
   xmlns="http://www.w3.org/2000/svg"
   xmlns:svg="http://www.w3.org/2000/svg">
  <sodipodi:namedview
     id="namedview1"
     pagecolor="#ffffff"
     bordercolor="#000000"
     borderopacity="0.25"
     inkscape:showpageshadow="2"
     inkscape:pageopacity="0.0"
     inkscape:pagecheckerboard="0"
     inkscape:deskcolor="#cccccc"
     inkscape:document-units="mm"
     inkscape:zoom="1.2645076"
     inkscape:cx="716.48442"
     inkscape:cy="258.20327"
     inkscape:window-width="2048"
     inkscape:window-height="1191"
     inkscape:window-x="-9"
     inkscape:window-y="-9"
     inkscape:window-maximized="1"
     inkscape:current-layer="layer2" />
  <defs
     id="defs1" />
  <g
     inkscape:label="Layer 1"
     inkscape:groupmode="layer"
     id="layer1"
     transform="translate(0.02029412,0.01540321)">
    <path
       style="display:inline;fill:#0077cc;fill-opacity:0;stroke:#0077cc;stroke-width:10;stroke-dasharray:none;stroke-opacity:1;paint-order:fill markers stroke"
       id="path3"
       transform="rotate(-90)"
       sodipodi:type="arc"
       sodipodi:cx="-54.96859"
       sodipodi:cy="54.96859"
       sodipodi:rx="50"
       sodipodi:ry="50"
       sodipodi:start="4.1887902"
       sodipodi:end="2.0943951"
       sodipodi:open="true"
       sodipodi:arc-type="arc"
       d="m -79.96859,11.66732 a 50,50 0 0 1 63.302222,11.161889 50,50 0 0 1 0,64.278761 50,50 0 0 1 -63.302222,11.16189" />
    <path
       sodipodi:type="star"
       style="fill:#fee996;fill-opacity:1;stroke-width:0.264583"
       id="path6"
       inkscape:flatsided="false"
       sodipodi:sides="5"
       sodipodi:cx="59.97422"
       sodipodi:cy="59.655209"
       sodipodi:r1="49.338882"
       sodipodi:r2="29.603331"
       sodipodi:arg1="-1.5704967"
       sodipodi:arg2="-0.96212368"
       inkscape:rounded="0.24"
       inkscape:randomized="0"
       d="m 59.989004,10.316328 c 7.252854,-0.142578 11.044266,20.786343 16.911779,25.05208 6.083469,4.42274 27.537737,1.948235 30.002067,9.054308 2.37686,6.853815 -16.356119,16.927054 -18.599915,23.825576 -2.32638,7.152425 6.656747,26.791978 0.659992,31.331599 C 83.17905,103.95836 67.810022,89.255043 60.555766,89.252827 53.034515,89.250529 37.132129,103.86294 30.961594,99.562512 25.010106,95.414739 34.244501,76.25435 32.004921,69.354459 29.682912,62.200614 10.87157,51.592031 13.054725,44.394596 15.16038,37.452663 36.236578,40.314208 42.106696,36.052057 48.192867,31.633035 52.469205,10.464155 59.989004,10.316328 Z"
       inkscape:transform-center-y="-1.2269836"
       transform="matrix(0.84896803,0,0,0.88811256,4.0663218,1.8385831)" />
    <rect
       style="fill:#0077cc;fill-opacity:1;stroke:#0089ce;stroke-width:5.52209;stroke-linecap:round;stroke-linejoin:round;stroke-dasharray:none;stroke-opacity:1;paint-order:fill markers stroke"
       id="rect14"
       width="4.4779129"
       height="54.477913"
       x="-2.2389598"
       y="135.49837"
       ry="2.2389565"
       transform="rotate(-45)"
       rx="2.2389565" />
    <path
       style="display:inline;fill:#0077cc;fill-opacity:1;stroke:#0089ce;stroke-width:0;stroke-linecap:round;stroke-linejoin:round;stroke-dasharray:none;stroke-opacity:0;paint-order:fill markers stroke"
       d="m 205.41544,520.16972 c -9.4757,-0.94675 -19.81838,-6.4968 -32.53265,-17.4576 C 145.31908,478.94981 101.06527,422.08249 47.685982,341.83089 28.44394,312.90197 26.381108,309.54189 20.758289,297.96924 10.50057,276.85724 3.9359319,254.11516 1.318732,230.62421 c -1.62029115,-14.5431 -1.62029115,-31.26484 0,-45.80793 2.5545142,-22.92832 9.121643,-45.88652 19.057367,-66.62317 l 1.898048,-3.96138 h 21.595432 21.595435 l -0.526979,0.79227 c -1.730868,2.60224 -6.186977,10.27237 -7.824899,13.46869 -11.165147,21.78824 -16.982599,41.98596 -19.126912,66.40709 -0.440548,5.0173 -0.440548,20.62363 0,25.64092 1.269837,14.46193 4.057376,27.97641 8.527406,41.34238 5.212885,15.58721 10.791009,26.64233 21.701453,43.00945 19.165992,28.75157 50.199297,52.28835 84.237447,63.88872 36.32328,12.37916 74.93358,12.37082 110.96686,-0.024 29.70839,-10.21914 56.17517,-28.65771 76.14821,-53.05003 6.0259,-7.35922 17.02485,-24.58027 21.30014,-33.34959 9.82108,-20.14472 15.36136,-41.22589 16.85164,-64.12176 0.6707,-10.30404 0.0808,-24.20573 -1.4853,-35.00129 -3.29995,-22.74807 -11.59589,-45.51256 -23.67642,-64.96948 l -2.41482,-3.88935 21.46868,-0.0739 c 11.80778,-0.0406 21.56421,0.0242 21.68098,0.14405 0.11673,0.11985 1.20667,2.35706 2.42205,4.97157 11.58837,24.92862 17.82845,49.72905 19.46336,77.35491 0.42011,7.09924 0.19078,21.64332 -0.45203,28.66597 -2.35743,25.75423 -8.82569,49.35219 -19.84607,72.40393 -2.49013,5.20869 -6.12648,11.99959 -7.81915,14.60233 -0.66981,1.02995 -3.54833,5.50271 -6.39666,9.93945 -2.84833,4.43675 -8.05139,12.43621 -11.56233,17.77659 -3.51093,5.34038 -6.38352,9.76072 -6.38352,9.82299 0,0.0623 0.93993,-0.0715 2.08873,-0.29721 4.45469,-0.8753 9.68221,0.22969 13.64667,2.88463 1.4545,0.97408 20.18603,19.54273 70.30699,69.69567 l 68.32423,68.36785 1.29622,2.73695 c 1.60662,3.39238 2.03039,5.18396 2.01034,8.49896 -0.0302,4.99315 -1.90596,9.48411 -5.41499,12.9645 -2.32333,2.30437 -4.36613,3.60117 -7.39144,4.69218 -1.87916,0.67767 -2.52776,0.76165 -5.8584,0.75831 -3.35231,-0.003 -3.9717,-0.0861 -5.90266,-0.78888 -1.18657,-0.4318 -2.87195,-1.19979 -3.7453,-1.70662 -1.18288,-0.68646 -18.95639,-18.26814 -69.67349,-68.92155 -37.44706,-37.40001 -68.64333,-68.7779 -69.32503,-69.72863 -1.74554,-2.43435 -2.42578,-3.89646 -3.1551,-6.78161 l -0.63567,-2.51473 -4.44945,6.5038 c -27.87346,40.74312 -53.83964,75.30157 -74.29086,98.87396 -12.81594,14.77185 -25.35236,27.03299 -34.92098,34.15419 -10.86573,8.08654 -21.01622,11.71309 -30.21252,10.79425 z"
       id="path23"
       transform="scale(0.26458333)" />
  </g>
  <g
     inkscape:groupmode="layer"
     id="layer2"
     inkscape:label="Layer 2">
    <g
       id="g30">
      <path
         style="fill:#000000;fill-opacity:1;stroke:#0077cc;stroke-width:0;stroke-linecap:round;stroke-linejoin:round;stroke-dasharray:none;paint-order:fill markers stroke"
         d="m 811.38303,278.34487 c -12.22528,-1.09106 -21.92836,-4.26933 -30.58058,-10.01674 -13.21249,-8.77666 -23.72693,-23.70672 -29.82546,-42.35084 -4.24892,-12.98959 -6.26694,-28.02476 -5.95736,-44.38487 0.12685,-6.70316 0.29094,-9.08941 1.02646,-14.92675 1.5331,-12.16725 4.73181,-23.1379 9.68434,-33.21451 6.97979,-14.20137 16.44202,-25.03566 27.79187,-31.8218 8.74862,-5.230852 19.01088,-8.157793 30.06792,-8.575793 21.3689,-0.807828 39.24872,4.545552 52.55721,15.736103 2.47411,2.08038 6.59322,6.32974 8.76559,9.04276 11.47933,14.33626 17.76927,33.2439 19.1062,57.43342 0.54036,9.7769 0.0712,21.96395 -1.20244,31.23746 -4.84559,35.28032 -22.24765,59.48479 -48.94315,68.07483 -5.00974,1.61203 -10.04172,2.67801 -16.08106,3.40662 -2.54763,0.30736 -14.14813,0.56194 -16.40954,0.36011 z m 13.14741,-22.13842 c 15.58492,-1.91063 27.29968,-10.35804 34.84349,-25.12534 5.50899,-10.78403 8.35345,-23.04572 9.16428,-39.50456 0.24559,-4.98532 0.13964,-14.33086 -0.21519,-18.97972 -1.82709,-23.93856 -8.70943,-39.88987 -21.20982,-49.15834 -5.87541,-4.35635 -13.06323,-7.03739 -21.98965,-8.2021 -3.66653,-0.4784 -11.60321,-0.48021 -14.81802,-0.003 -6.37603,0.94573 -11.48176,2.86025 -16.41943,6.15689 -8.75501,5.84527 -15.37291,16.11405 -19.38504,30.07913 -3.82347,13.30839 -5.01333,31.73805 -3.1383,48.60885 1.37205,12.34526 4.9974,24.46939 10.10913,33.80763 7.68178,14.03327 18.08703,21.38127 32.05267,22.63503 2.43668,0.21876 7.94079,0.0617 11.00588,-0.31409 z"
         id="path14"
         transform="scale(0.26458333)" />
      <path
         style="fill:#000000;fill-opacity:1;stroke:#0077cc;stroke-width:0;stroke-linecap:round;stroke-linejoin:round;stroke-dasharray:none;paint-order:fill markers stroke"
         d="m 983.38674,278.33196 c -23.16402,-1.74548 -40.66711,-11.92883 -53.33647,-31.03134 -8.96899,-13.5232 -14.17332,-30.12843 -15.54388,-49.5952 -1.1007,-15.63386 -0.0338,-29.45061 3.25834,-42.19657 5.91141,-22.88684 19.84346,-42.64565 37.39312,-53.03193 11.4359,-6.768028 24.0712,-9.769956 39.47706,-9.379071 14.59119,0.370216 25.27429,2.224024 35.01489,6.076041 2.8022,1.10815 7.2163,3.33298 7.2163,3.63722 0,0.36592 -7.905,20.45131 -8.0504,20.4548 -0.078,0.002 -0.7786,-0.40831 -1.5565,-0.91154 -5.419,-3.50556 -13.1157,-5.75472 -23.7065,-6.92765 -4.558,-0.50479 -16.05492,-0.50403 -19.07858,10e-4 -10.08605,1.68552 -17.79691,5.70833 -24.93652,13.00957 -10.27348,10.50605 -17.02691,26.33994 -19.12986,44.85125 -0.8241,7.2542 -0.93658,19.96286 -0.23272,26.29482 1.99979,17.99028 8.05456,32.29754 18.10313,42.77715 7.01362,7.31448 15.62149,11.95962 25.10859,13.54954 10.9882,1.84149 23.41846,0.18335 32.42466,-4.32532 5.0213,-2.51373 10.0492,-6.50567 13.7511,-10.91792 l 1.4553,-1.73455 0.4804,0.63978 c 0.2642,0.35188 3.2545,4.50038 6.6451,9.2189 l 6.1648,8.57911 -0.9531,0.97101 c -0.5243,0.53406 -1.9105,1.78433 -3.0805,2.77839 -12.0416,10.23079 -26.1122,15.77449 -43.52193,17.14733 -2.32398,0.18326 -11.22183,0.22647 -13.36583,0.0649 z"
         id="path15"
         transform="scale(0.26458333)" />
      <path
         style="fill:#000000;fill-opacity:1;stroke:#0077cc;stroke-width:0;stroke-linecap:round;stroke-linejoin:round;stroke-dasharray:none;paint-order:fill markers stroke"
         d="m 1055.2114,274.85995 c 0.1433,-0.35339 16.5367,-41.27817 36.4298,-90.94395 l 36.1693,-90.301401 3.1633,0.0042 3.1633,0.0042 33.691,90.692631 c 18.5301,49.88094 33.7311,90.80445 33.7799,90.94113 0.071,0.19831 -2.6369,0.23825 -13.4022,0.19771 l -13.4911,-0.0508 -6.1676,-18.88086 -6.1676,-18.88087 -33.4963,-0.0472 -33.4963,-0.0472 -6.6207,18.97747 -6.6206,18.97747 h -13.5974 -13.5974 z m 100.0667,-55.55522 c -0.3356,-1.07415 -24.4689,-75.93211 -24.9374,-77.35224 -0.5209,-1.57886 -0.5223,-1.5806 -0.7613,-0.98853 -0.1887,0.46734 -25.9555,73.61761 -27.3863,77.74766 l -0.3595,1.03795 h 26.7917 26.7918 z"
         id="path16"
         transform="scale(0.26458333)" />
      <path
         style="fill:#000000;fill-opacity:1;stroke:#0077cc;stroke-width:0;stroke-linecap:round;stroke-linejoin:round;stroke-dasharray:none;paint-order:fill markers stroke"
         d="M 1220.8309,185.84309 V 96.183685 h 12.1589 12.1589 v 78.686755 78.68676 h 40.5296 40.5296 v 10.97265 10.97265 h -52.6885 -52.6885 z"
         id="path17"
         transform="scale(0.26458333)" />
      <path
         style="fill:#000000;fill-opacity:1;stroke:#0077cc;stroke-width:0;stroke-linecap:round;stroke-linejoin:round;stroke-dasharray:none;paint-order:fill markers stroke"
         d="m 1169.6252,493.5683 c -13.0405,-1.07433 -24.4367,-4.75206 -33.5699,-10.83353 -0.1972,-0.13135 0.7556,-2.72536 4.1233,-11.22484 2.4089,-6.07971 4.4093,-11.08553 4.4454,-11.12405 0.036,-0.0385 0.8052,0.41422 1.7091,1.0061 7.6662,5.02 17.6195,8.68087 27.3451,10.05767 3.1605,0.44741 8.7842,0.53286 11.6792,0.17745 7.9394,-0.97465 13.8864,-3.69545 18.7759,-8.59021 4.784,-4.78909 7.066,-9.84011 7.603,-16.82863 0.604,-7.86135 -2.0182,-16.19733 -6.8437,-21.7559 -2.5401,-2.92603 -7.5549,-6.57196 -13.9152,-10.11676 -3.5176,-1.96051 -6.0151,-3.18128 -16.4872,-8.05908 -5.099,-2.37506 -10.615,-5.06544 -12.2577,-5.97861 -8.6682,-4.81857 -15.0366,-10.2805 -19.2077,-16.47365 -1.3481,-2.0017 -3.7848,-6.92525 -4.6296,-9.35458 -3.5265,-10.14118 -4.1097,-22.86745 -1.4867,-32.43824 2.0721,-7.56042 5.6703,-13.61821 11.5792,-19.4944 8.4174,-8.37072 19.2577,-13.03891 32.6045,-14.04058 3.707,-0.27821 12.2331,-0.119 17.2003,0.32119 12.5457,1.11179 21.601,3.79005 27.6294,8.1719 0.6796,0.49399 1.2356,0.92783 1.2356,0.96409 0,0.18321 -6.9945,20.7355 -7.0967,20.85281 -0.066,0.0754 -0.6089,-0.176 -1.2069,-0.55863 -4.5288,-2.89746 -13.644,-6.37107 -20.9568,-7.98618 -7.3869,-1.63147 -15.3931,-1.66127 -20.8556,-0.0776 -6.5432,1.89694 -11.6465,5.98682 -14.5959,11.69743 -4.7643,9.22446 -3.5111,22.12731 2.9666,30.54562 3.7729,4.90317 9.3822,8.34818 27.9377,17.15834 13.5098,6.41446 15.5663,7.4824 19.9682,10.3693 4.6868,3.0737 8.9276,6.75752 11.9726,10.3999 6.9709,8.33871 10.7533,20.52861 10.7609,34.68029 0.01,12.64627 -4.6767,23.57696 -13.9148,32.47481 -9.3863,9.04065 -20.8833,14.11515 -35.7371,15.77356 -3.3051,0.36901 -13.6263,0.54439 -16.7745,0.28504 z"
         id="path18"
         transform="scale(0.26458333)" />
      <path
         style="fill:#000000;fill-opacity:1;stroke:#0077cc;stroke-width:0;stroke-linecap:round;stroke-linejoin:round;stroke-dasharray:none;paint-order:fill markers stroke"
         d="m 989.91102,401.04544 v -89.75826 l 1.63106,-10e-4 c 0.89709,-6.7e-4 3.94423,-0.0874 6.77142,-0.1928 6.6351,-0.24728 23.858,-0.74129 31.3363,-0.89883 17.7092,-0.37307 31.6184,2.25517 43.9895,8.31217 7.126,3.48896 13.1308,7.82668 18.9233,13.66964 5.9075,5.95896 9.9883,11.58755 13.6278,18.79639 4.9387,9.78227 7.6031,19.70258 8.9085,33.16911 0.3248,3.35043 0.3211,17.3151 -0.01,21.64875 -0.5818,7.71373 -1.3648,13.76126 -2.5204,19.46544 -4.4717,22.07403 -13.9013,38.34641 -28.6372,49.41868 -5.7899,4.35041 -14.2999,8.62213 -22.0597,11.07314 -5.1812,1.63653 -12.0708,3.12507 -17.8924,3.86575 -8.0285,1.02149 -12.8338,1.18288 -35.3398,1.18694 l -18.73258,0.003 z m 52.76348,67.32812 c 9.3127,-1.31675 16.8506,-4.41636 23.7485,-9.76553 2.1125,-1.63817 6.0317,-5.53704 7.7813,-7.74083 7.3702,-9.28368 12.0703,-20.82933 14.2456,-34.99386 2.2352,-14.55503 1.8479,-31.65127 -0.99,-43.6929 -2.8687,-12.17272 -8.4169,-21.92087 -16.105,-28.29644 -9.0448,-7.50057 -20.6787,-11.34008 -35.6751,-11.77374 -4.2244,-0.12216 -7.0926,0.007 -16.3107,0.73666 -2.6641,0.21077 -4.9105,0.38374 -4.992,0.38439 -0.082,6.4e-4 -0.1483,30.23873 -0.1483,67.19574 v 67.19457 l 0.7414,0.1171 c 1.7225,0.27206 6.9598,0.75158 9.9625,0.91216 4.9139,0.2628 15.0413,0.10449 17.7418,-0.27732 z"
         id="path19"
         transform="scale(0.26458333)" />
      <path
         style="fill:#000000;fill-opacity:1;stroke:#0077cc;stroke-width:0;stroke-linecap:round;stroke-linejoin:round;stroke-dasharray:none;paint-order:fill markers stroke"
         d="m 899.36193,427.55407 -46.36192,-65.6108 -0.0497,64.43021 -0.0497,64.43021 H 841.3351 829.76963 v -89.76177 -89.76177 l 4.78768,0.0529 4.78768,0.0529 44.73049,61.48638 c 24.60178,33.81751 44.95132,61.75329 45.2212,62.0795 l 0.49071,0.59312 0.0106,-62.12893 0.0106,-62.12892 h 11.56577 11.56576 v 90.94449 90.94449 l -3.60812,-0.006 -3.60813,-0.006 z"
         id="path20"
         transform="scale(0.26458333)" />
      <path
         style="fill:#000000;fill-opacity:1;stroke:#0077cc;stroke-width:0;stroke-linecap:round;stroke-linejoin:round;stroke-dasharray:none;paint-order:fill markers stroke"
         d="M 586.59593,260.58504 V 30.476147 h 16.49627 16.49626 V 138.12125 245.76636 h 58.99511 58.99511 v 14.81868 14.81867 h -58.99511 -58.99511 v 34.39052 34.39051 h 43.05804 43.05804 v 13.97989 13.97988 H 662.6465 619.58846 v 59.27471 59.27471 H 603.0922 586.59593 Z"
         id="path13"
         transform="scale(0.26458333)" />
      <path
         style="fill:#000000;fill-opacity:1;stroke:#0077cc;stroke-width:0;stroke-linecap:round;stroke-linejoin:round;stroke-dasharray:none;paint-order:fill markers stroke"
         d="m 764.13143,401.04544 v -89.75826 h 12.15888 12.15889 v 89.75826 89.75825 h -12.15889 -12.15888 z"
         id="path21"
         transform="scale(0.26458333)" />
    </g>
  </g>
</svg>
